<?xml version="1.0" encoding="utf-8"?>
<svg version="1.2" viewBox="0 0 1920 1024" baseProfile="tiny-ps" xmlns="http://www.w3.org/2000/svg">
  <title>MegiaGlobalTrading</title>
  <desc id="svgDesc">http://megia.global</desc>
  <path d="M1101.5,533.56c15.08-7.62,28.51-17.56,40.68-29.2,11.48-10.98,14.45-26.81,8.04-41.43-4.05-9.23-8.75-18.23-12.05-27.71-4.58-13.17-3.98-35.37.32-46.35,7.53,7.33,12.81,16.04,17.95,24.93,10.37,17.9,9.04,36.3,3.37,55.16-1.2,4-.95,8.43-1.58,13.41-.09,1.41.03,2.08.16,2.75.44-.37.87-.73,1.31-1.1,11.52-14.64,21.49-30.18,26.71-48.27,3.7-12.8,1.15-24.68-8.3-33.92-16.64-16.28-24.41-36.59-28.72-58.71-.5-2.56-.07-5.3-.07-8.46,9.12,4.45,16.58,10.88,23.37,18.02,14.2,14.94,19.89,32.72,17.78,53.33-.62,6.03,1.04,12.29,1.78,19.7,1.09-2.03,1.8-3.1,2.27-4.27,6.71-16.8,11.91-34.04,13.68-52.09,1.34-13.67-3.63-24.72-15.64-32.05-5.21-3.19-10.68-5.97-15.84-9.23-17.17-10.86-24.92-28.17-32.09-47,13.05,2.77,24.17,7.64,34.09,15.3,13.81,10.65,20.9,25.28,25.25,41.7,1.09,4.11,3.35,7.91,5.07,11.85.47-.1.95-.21,1.42-.31,0-4.36.26-8.75-.05-13.09-.88-12.24-1.23-24.59-3.2-36.67-2.66-16.34-12.39-26.93-28.89-30.95-25.95-6.32-40.54-25.4-53.43-47.98,14.43,1.82,27.33,4.97,39.19,11.9,13.13,7.67,21.81,19.01,28.34,32.49,1.85,3.82,5.49,6.78,8.66,10.68.83.95,1.31,1.35,2.89,2.66-.94-2.25-1.29-3.1-1.65-3.95-2.38-14.95-8.23-28.76-13.52-42.83-5.68-15.1-14.95-26.91-27.14-37.25-15.9-13.49-22.64-31.81-24.55-52.15-.42-4.45-.66-8.91-1.09-14.88,5.71,4.65,10.55,8.51,15.31,12.49,18.61,15.57,29.91,35.46,32.94,59.43,1.27,10.04,5.09,18.58,9.44,27.35,3.93,7.91,6.67,16.41,9.89,24.52,3.56-8.36-.56-16.38-1.74-24.53-1.97-13.51-.3-26.48,5.15-38.85,3.44-7.8,7.74-15.23,11.97-23.45,11.22,26.1,9.65,50.36-4.47,73.59-7.44,12.23-7.48,24.8-4.37,38.29,2.67,11.6,3.9,23.53,5.78,35.32.22,1.36.47,2.71.71,4.06.64.01,1.27.03,1.91.04.59-4.9,1.8-9.81,1.66-14.69-.84-30.19,8.53-50.78,33.01-71.49,3.71,10.43,1.91,32.83-3.55,46.39-3.97,9.87-9.83,18.6-17.46,25.77-10.24,9.63-13.26,21.73-14.3,34.91-1.21,15.32-2.52,30.64-3.83,46.49,2.34-3.82,5.29-7.41,6.9-11.52,3.8-9.66,6.07-20.01,10.58-29.29,8.35-17.18,23.58-27.35,40.48-36.34-4.1,25.68-11.51,49.11-34.41,63.67-12.24,7.78-22.72,16.63-28.11,30.4-3.36,8.58-6.24,17.35-9.67,25.91-2.34,5.82-5.26,11.41-8.28,17.64-.56,1.17-.76,1.79-1.28,3.45,1.34-1.26,1.87-1.75,2.39-2.24,7.31-3.01,10.45-9.82,14.17-15.94,7.58-12.48,16.18-23.9,29.16-31.31,10.73-6.13,22.29-9.77,35.15-11.93-9.92,20.01-19.49,39.34-40.96,48.62-5.15,2.22-10.46,4.23-15.88,5.63-14.51,3.74-24.54,13.05-32.79,24.97-7.43,10.75-15.15,21.3-22.53,32.76,3.26-1.92,6.93-3.38,9.7-5.85,9.43-8.39,18.4-17.28,30.22-22.51,12.95-5.73,26.58-6.58,40.43-6.33,3.16.06,6.32,0,10.22,1.05-6.98,6.17-13.75,12.6-20.99,18.44-13.9,11.21-29.9,17.22-47.82,16.68-16.72-.51-29.91,6.05-41.99,17.13-19.15,17.58-41.11,30.27-66.72,36.59-9.02,2.23-17.31,7.31-26.07,10.72-32.95,12.81-67.05,19.23-102.39,16.12-49.58-4.36-93.92-22.15-131.82-54.72-39.89-34.27-64.95-77.28-73.71-129.32-11.12-66,4.3-125.68,46.05-177.61,33.59-41.77,77.5-67.74,130.73-77.08,48.6-8.52,95.78-4.16,141.06,15.99,27.74,12.35,51.06,30.64,70.2,53.85-13.77,6.31-27.39,12.55-41.33,18.95,9.81,19.23,17.12,38.95,22.27,59.5,5.14,20.51,7.77,41.34,8.66,63.05,6.51,0,12.94,0,19.37,0q8.09,0,6.8,8.43h-24.55c-3.3,21.37-5.71,42.41-9.96,63.08-4.23,20.6-12.48,40-22.06,58.07,12.13,6.57,24.01,13,36.32,19.67,3.32-3.71,7.05-7.87,10.75-12,1.56,4.86.64,10.27-4.98,16.25-8.5,9.06-17.81,17.35-27.26,26.4-1.41,1.21-2.33,1.99-3.25,2.77l.69.85c1.31-.77,2.62-1.53,3.94-2.3M909.86,151.73c-27.53,5.19-52.79,15.89-75.67,31.96-9.7,6.81-18.77,14.52-29.01,22.51,13.28,6.51,25.21,12.35,37.17,18.21,17.86-29.5,40.4-53.67,69.75-72.1.21-.36.42-.71.63-1.07-.69.14-1.38.28-2.88.5M932.76,153.57c-5.75,2.37-11.82,4.19-17.2,7.22-16.68,9.4-30.7,22.21-43.2,36.51-7.96,9.1-14.67,19.29-22.72,30.02,15.91,4.24,30.31,8.08,44.64,11.9,2.54-7.89,4.61-14.49,6.79-21.06,7.64-23.08,17.11-45.21,33.72-64.16-.43-.23-.87-.46-2.03-.43M989.13,153.18c-.28.1-.56.2-.84.3.23.18.46.36.82,1.21,21.3,23.85,30.91,53.31,39.52,83.85,14.95-4.2,29.4-8.25,44.12-12.39-12.5-20.19-26.06-37.67-43.86-51.47-11.93-9.25-24.25-17.85-39.76-21.5M776.4,471.02c7.79,10.66,15.58,21.32,22.88,31.31,13.46-7.26,25.76-13.9,38.31-20.68-19.56-37.52-28.56-78.02-29.4-120.57h-64.32c-.47,33.25,10.76,75.42,32.53,109.93M826.23,257.71c3.87-8.85,7.74-17.7,11.48-26.25-12.46-6.13-24.71-12.17-37.58-18.51-35.06,39.34-54.27,85.53-56.72,139.08h64.82c1.1-32.26,6.38-63.51,18-94.33M1040.37,308.98c.96,14.4,1.91,28.8,2.85,42.96h64.61c-2-42.22-10.76-82.06-30.28-118.29-15.16,3.87-29.83,7.67-44.53,11.34-3,.75-2.25,2.61-1.94,4.59,3.07,19.49,6.11,38.99,9.29,59.4M1061.5,360.79h-18.29c-.46,7.07-.98,13.5-1.26,19.93-1.21,27.55-4.57,54.81-10.83,81.7-.24,1.02,1.05,3.3,2.04,3.58,14.83,4.27,29.73,8.31,44.77,12.44,20.33-35.96,28.49-75.66,29.73-117.6-15.27,0-30.21,0-46.16-.05M889.4,465.99c2.74-.15,3.18-1.83,2.65-4.07-6.84-28.84-9.18-58.22-10.44-87.73-.19-4.37-.03-8.76-.03-13.18h-65.11c.86,41.85,9.23,81.45,28.69,117.44,14.89-4.24,29.14-8.3,44.24-12.46M818.51,352.22h62.59c.44-35.79,3.47-71,11.56-104.86-15.95-4.31-31.34-8.47-47.27-12.78-3.08,6.92-6.53,14.22-9.61,21.66-11.03,26.69-16.56,54.65-18.75,83.32-.32,4.19.29,8.44,1.47,12.65M958.12,349.39c0-17.31.03-34.62-.02-51.94-.04-13.8-.11-27.6-.42-41.39-.03-1.25-1.86-3.45-2.98-3.53-17.84-1.33-35.7-2.39-54.18-3.55-7.78,33.27-11.47,67.87-11.36,103.26,22.53,0,44.6.02,66.67-.08.74,0,1.48-1.17,2.28-2.77M969.93,252.22c-3.63-.39-3.82,1.81-3.81,4.62.05,22.45,0,44.9-.02,67.35,0,9.24,0,18.47,0,27.85h68.66c-.61-35.64-3.9-70.47-12.26-103.83-17.67,1.38-34.65,2.7-52.58,4.01M958.07,449.47v-88.34h-68.95c.79,34.71,3.4,68.79,11.09,101.69,19.46-1.85,38.41-3.65,57.85-5.49,0-1.97,0-4.42,0-7.86M1024.69,455.05c6.65-30.88,9.61-62.14,10.07-94.03h-68.28v96.54c19.06,1.91,37.63,3.77,56.35,5.65.46-2.22.99-4.81,1.86-8.16M926.83,536.56c4.25,6.11,8.12,12.53,12.85,18.24,4.99,6.04,8.82,14.11,18.61,13.78v-101.89c-19.06.3-37.4,1.55-55.77,5.3,5.51,22.78,13.06,43.98,24.32,64.57M985.78,467.65c-6.41-.35-12.82-.69-19.28-1.04-.63,34.21-1.25,67.78-1.89,102.37,3.63-.98,7.36-.85,9.01-2.64,6.28-6.8,12.5-13.8,17.61-21.48,11.17-16.79,18.23-35.55,24.29-54.67,1.86-5.86,3.39-11.82,5.27-18.43-12.08-1.43-23.09-2.74-35.02-4.1M940.41,158.94c-19.75,23.51-28.99,51.89-37.9,81.88,18.73,1.38,36.95,2.72,55.99,4.12v-95.87c-8-.95-12.86,4.08-18.09,9.86M966.12,199.5v45.33c18.31-1.62,36.05-3.18,54.3-4.79-.59-2.63-.85-4.41-1.4-6.1-3.27-10.04-6.21-20.22-10.02-30.06-7.34-18.97-17.2-36.43-32.07-50.75-3.45-3.32-7.1-4.45-10.74-4.06,0,16.61,0,33.02-.07,50.43M900.38,494.13c-1.97-6.95-3.94-13.9-6.15-21.71-15.13,4.41-29.99,8.75-45.29,13.21,21.17,36.33,48.3,64.46,87.62,79.07-16.34-21.13-27.79-44.62-36.18-70.58M1041.6,529.09c12.3-12.96,22.88-27.17,32.19-43.49-15.54-4.36-30.36-8.52-45.17-12.68-9.33,33.87-20.29,65.83-43.86,92.63,21.87-8.03,40.7-19.48,56.84-36.46M813.95,515.57c29.31,25.8,63.02,42.72,101.42,50.3-15.37-9.33-30.05-19.69-41.73-33.32-11.71-13.66-22.15-28.41-33.64-43.32-10.49,5.64-22.09,11.88-34.11,18.35,2.9,2.88,5.23,5.19,8.06,7.99M1013.3,561.8c-1.38.9-2.76,1.79-4.14,2.69,41.58-8.04,76.95-27.31,107.3-56.97-6.21-3.54-11.73-6.9-17.44-9.89-5.81-3.05-11.82-5.73-17.68-8.55-30.62,43.76-43.29,57.32-68.03,72.72M1059.56,192.93c7.12,9.75,14.23,19.49,21.81,29.87,9.6-4.63,20.01-9.66,30.91-14.93-27.72-28.28-60.76-46.47-99.3-55.09,17.25,11.08,32.92,23.92,46.58,40.15Z" />
  <path d="M780.82,735.11c.76,7.39,1.19,14.37,2.17,21.27,1.01,7.12,5.69,11.32,12.26,14.09h-43.43c1.29-.81,2.14-1.31,2.96-1.87,5.52-3.8,9.06-8.52,8.39-15.77-1.71-18.52-3.19-37.05-4.79-55.58-1.03-11.9-2.12-23.8-3.19-35.71-.45-.13-.91-.27-1.36-.4-15.69,37.51-31.39,75.02-47.08,112.54l-1.43.05c-2.46-4.84-5-9.64-7.37-14.52-2.38-4.91-4.66-9.87-6.89-14.85-11.45-25.65-22.86-51.33-34.36-76.96-.47-1.06-1.65-1.8-3.39-3.6-1.21,13.49-2.38,25.52-3.35,37.57-1.17,14.59-1.48,29.28-3.45,43.75-1.61,11.86.28,20.83,12.61,25.48h-35.1c0-.06-.1-.53.01-.58,10.43-5.21,13.74-13.91,14.36-25.22,1.14-20.88,3.57-41.7,5.44-62.54.77-8.61,1.71-17.21,2.15-25.84.53-10.53-2.15-14.55-12.45-19.19,10.48,0,20.16-.12,29.83.14,1.23.03,2.94,1.8,3.52,3.16,12.11,28.22,24.05,56.51,36.12,84.75,2.63,6.15,5.6,12.16,8.91,19.31,4.02-10.28,7.53-19.44,11.19-28.54,10.23-25.44,20.51-50.87,30.87-76.26.44-1.08,1.87-2.46,2.87-2.48,8.89-.19,17.78-.11,27.92-.11-9.23,4.97-11.52,12.25-10.75,20.97,2.25,25.49,4.47,50.98,6.79,76.93Z" />
  <path d="M958.87,722.8c4.18,15.31,11.76,27.98,25.1,36.22,15.61,9.65,32.03,9.53,48.53,2.08,2.69-1.22,3.9-3.16,3.76-6.58-.35-8.63.1-17.29,0-25.93-.17-14.99-1.77-17.15-16.16-22.13h46.68c-9.41,4.86-10.57,13.32-10.58,22.41,0,10.12-.09,20.24-.37,30.35-.04,1.46-1.05,3.77-2.18,4.21-26.44,10.12-53.58,15.51-80.67,4.03-22.24-9.42-34.45-27.28-37.99-51.68-6.13-42.27,24.29-73.7,56.6-80.19,17.48-3.51,34.79-1.37,51.76,3.37,9.54,2.67,9.46,3.01,9.51,13.19.03,6.43,0,12.85,0,19.44-4.41-5.66-8.22-11.37-12.84-16.33-17.07-18.32-52.95-21.94-72.14,6.04-11.26,16.42-12.55,34.77-10.52,53.77.26,2.47.93,4.89,1.49,7.74Z" />
  <path d="M849.4,683c-.05,5.13-.05,9.76-.05,15.84,10.79-.84,21.3-1.4,31.74-2.57,5.34-.6,8.65-4.53,10.96-9.21.54-1.09,1.08-2.19,2.32-3.1v38.47c-1.11-1.37-1.78-1.84-1.95-2.46-2.73-9.54-9.76-13.4-18.94-14-6.96-.46-13.95-.5-20.92-.36-1.06.02-2.97,2.03-2.98,3.14-.19,17.9-.13,35.8-.13,54.31,8.49,0,16.76.24,25-.07,8.56-.32,17.23-1.92,23.98-7.18,6.24-4.85,11.11-11.46,17.48-18.25-3.11,11.81-5.88,22.28-8.71,33.03h-89.99c1.45-.84,2.28-1.39,3.18-1.83,5.55-2.74,8.71-7.06,8.75-13.37.19-28.86.37-57.73.51-86.59.02-4.65-.19-9.31-.24-13.97-.1-8.19-3.9-13.86-12.65-17.38h88.15v29.54c-1.37-1.45-2.01-1.81-2.11-2.28-3.23-14.76-14.3-18.91-27.37-19.73-8.27-.52-16.6-.1-25.98-.1,0,12.32,0,24.96-.05,38.11Z" />
  <path d="M1246.01,730c-.85-3.1-2.25-4.1-5.41-4.04-14.31.27-28.63.18-42.94.02-3.42-.04-5.34.97-6.48,4.39-2.08,6.24-4.66,12.32-7,18.48-4.59,12.14-2.41,17.08,9.83,21.74h-36.06c16.47-11.02,19.4-28.6,25.75-44.08,10.28-25.06,19.82-50.42,29.63-75.67,1.62-4.18,2.06-8.37-.71-12.6,5.76-1.2,11.62-2.43,18.21-3.81,3.69,9.58,7.83,20.39,12.01,31.19,11.67,30.21,23.26,60.46,35.11,90.6,2.59,6.59,7.59,11.33,14.24,14.41h-47.49c3.23-1.58,7.11-2.26,8.61-4.52,1.75-2.66,2.64-7.02,1.79-10.05-2.44-8.71-5.93-17.12-9.09-26.06M1202.53,701.97c-2.14,5.47-4.29,10.93-6.5,16.56h45.43c-7.46-19.91-14.72-39.29-22.47-59.98-5.78,15.26-10.98,28.98-16.47,43.42Z" />
  <path d="M1115.99,637.13c5.97-.02,11.43-.02,18.32-.02-12.14,6.38-11.6,16.77-11.56,27.13.11,29.04.08,58.09.03,87.13-.02,9.13,3.78,15.54,12.56,19.11h-43.61c9.23-4.28,11.68-11.73,11.62-21.02-.18-30.91.02-61.82.03-92.73,0-9.29-3.48-16.32-12.99-19.6,8.37,0,16.73,0,25.6-.02Z" />
  <path d="M663.82,858.1c-3.54-5.96-3.71-12.08-2.28-18.19,1.62-6.95,7.4-11.8,14.34-12.71,8.6-1.13,14.28,1.81,19.09,10.12-1.81.53-3.56,1.05-5.3,1.56-5.56-6.31-10.45-7.85-15.92-5.03-5.71,2.94-8.02,9.55-6.06,17.28,1.49,5.86,5.84,9.15,11.94,9.02,5.49-.11,8.13-2.39,9.53-8.67h-9.88v-5.62c5.5,0,10.81,0,16.11,0,2.08,7.93-.96,15.01-7.85,18.25-8.5,4-18.09,1.67-23.73-6.03Z" />
  <path d="M1193.7,855.39c-3.82-5.59-7.42-10.9-11.86-17.43v26.77h-6.52v-36.11c4.48-1.55,7.11-.19,9.49,3.67,4.38,7.11,9.36,13.86,15.11,20.39v-24.25h5.8v36.21c-7.92,2-8.39-5.38-12.02-9.24Z" />
  <path d="M1259.21,854.04c-2.82,8.63-9.59,12.79-18.68,11.81-9.54-1.04-15.69-7.63-16.43-17.6-1.1-14.79,11.44-25.25,24.58-20.03,3.78,1.5,6.75,5.06,10.1,7.67-.29.47-.57.95-.86,1.42-1.66.5-3.32,1-4.99,1.5-5.13-6.25-9.53-7.73-15.26-5.11-5.76,2.63-8.19,8.59-6.75,16.56,1.05,5.82,5.48,9.83,11.23,10.17,5.39.31,8.76-2.3,10.83-8.93-3.32-.19-6.49-.38-9.85-.57v-4.96h16.6c-.14,2.59-.28,5.14-.51,8.08Z" />
  <path d="M758.95,864.29c-8.25-2.98-11.37-13.31-10.65-20,.83-7.71,4.18-13.91,12.37-16.32,8.07-2.38,15.56-.32,20.63,5.86,4.77,5.81,5.29,17.84,1.06,24.41-4.13,6.4-12.14,9.05-20.67,6.83-.8-.21-1.61-.38-2.74-.78M769.91,859.97c9.93-2.05,10.87-17.24,6.01-23.1-4.25-5.12-12.93-5.78-17.13-1.01-4.46,5.06-5.2,11.03-2.58,17.12,2.37,5.48,6.92,7.74,13.7,6.98Z" />
  <path d="M812.04,864.95c-3.28,0-6.09,0-9.1,0v-36.99c5.14,0,10.25-.09,15.35.03,4.39.11,8.19,1.54,10.04,5.95,1.85,4.4-.13,7.68-3.82,10.6,5.58,2.97,7.64,7.42,5.89,13.23-1.44,4.76-5.97,7.13-12.89,7.15-1.66,0-3.32.02-5.46.03M815.41,847.66c-6.93.16-8.08,2.69-5.54,12.5,2.94,0,6.14.68,8.83-.21,2.26-.74,4.99-3.03,5.53-5.15.46-1.8-1.54-4.64-3.13-6.41-.85-.94-3.13-.58-5.69-.73M813.21,832.42c-1.39.1-2.79.2-4.09.3v9.72c1.6.1,3.05.32,4.49.25,3.88-.2,9.04.47,9.28-4.92.25-5.69-4.97-4.95-9.68-5.34Z" />
  <path d="M1099.84,856.95c.01-9.78.01-19.07.01-28.71,5.95,0,11.78-.56,17.47.13,9.41,1.13,14.93,8.66,14.53,18.69-.4,10.05-6.78,17.11-16.45,17.75-4.93.33-9.91.06-15.57.06,0-2.6,0-5.02.01-7.92M1116.52,833.47c-3.38-.24-6.76-.48-10.37-.74v26.56c3.09,0,5.87.21,8.61-.04,6.54-.59,10.36-4.56,11.09-11.2.79-7.19-2.15-12.08-9.33-14.59Z" />
  <path d="M1012.58,850.3c-.33,4.86-.33,9.48-.33,14.33h-5.92v-36.48c5.41,0,11.02-.41,16.53.12,5.34.51,9.13,4.85,9.75,9.84.58,4.68-2.08,8.33-7.59,10.83,3.01,5.05,6.05,10.16,9.21,15.47-5.18,1.37-7.62.32-9.57-4.44-1.97-4.83-4.14-11.06-12.08-9.67M1012.19,843.15c2.07,2.28,8.55,2.83,11.26.18,1.53-1.49,2.58-4.66,2.15-6.71-.79-3.72-5.59-4.62-13.39-3.13,0,2.86,0,5.8-.02,9.66Z" />
  <path d="M1056.22,843.03c1.02-2.68,1.91-5,2.8-7.32,3.54-9.2.64-7.65,11.58-7.42,4.32,11.92,8.66,23.94,13.04,36.02-4.78,1.56-7.01.38-7.94-4.08-.29-1.41-2.67-3.12-4.29-3.36-3.74-.56-7.6-.46-11.4-.26-1.08.06-2.49,1.15-3.06,2.15-1.04,1.82-1.56,3.93-2.34,6.02h-6.61c2.82-7.44,5.46-14.41,8.23-21.75M1067.26,835.07c-.24-.8-.47-1.61-1.1-3.73-2.48,7.31-4.51,13.28-6.46,19.05h12.54c-1.64-5.17-3.12-9.87-4.97-15.32Z" />
  <path d="M871.33,856.97c-4.03-.26-7.71,0-11.3-.45-3.85-.49-5.99.69-6.75,4.53-.25,1.26-.93,2.44-1.42,3.67h-6.33c4.63-12.42,9.11-24.39,13.62-36.48h8.59c4.42,11.97,8.89,24.07,13.49,36.53h-6.22c-1.07-2.48-2.18-5.03-3.67-7.79M861.47,838.06c-1.43,4.12-2.87,8.25-4.35,12.51h12.6c-2.07-6.35-3.98-12.19-6.27-19.18-.8,2.82-1.24,4.39-1.98,6.67Z" />
  <path d="M971.11,837.1c-.92-1.42-1.75-3.02-2.76-3.15-2.9-.36-5.88-.13-9.03-.13v-5.46h29.51v5.36h-11.34v31.08h-6.38c0-9.07,0-18.14,0-27.71Z" />
  <path d="M714.12,850c.03-7.45.03-14.41.03-21.64h6.42v30.87h16c.17,1.93.31,3.52.49,5.51h-22.96c0-4.76,0-9.5.03-14.74Z" />
  <path d="M899.12,828.23c1.94-.02,3.42-.02,5.3-.02v31.22h16.27c.11,1.9.19,3.35.29,5.16h-23.03c0-9.47-.05-19.03.03-28.59.02-2.59.44-5.17,1.13-7.77Z" />
  <path d="M1117.6,604.45c5.3-1.29,10.31-2.42,15.37-3.29,1.93-.33,3.96-.05,5.99-.05-3.71,8.66-23.76,22.1-32.96,21.36,3.96-6.2,7.64-11.97,11.6-18.01Z" />
  <path d="M1155.88,829.41c.03,11.93.03,23.4.03,35.19h-6.37v-36.84c2.32.44,4.31.81,6.34,1.65Z" />
</svg>